<svg xmlns="http://www.w3.org/2000/svg"  viewBox="0 0 32 32" width="32px" height="32px"><path d="M 16 4 C 13.082495 4 10.165259 4.3463233 7.2539062 5.0371094 C 6.1553894 5.2973641 5.2975503 6.1561175 5.0371094 7.2539062 C 3.6555596 13.078569 3.6554183 18.927109 5.0390625 24.751953 C 5.2984842 25.847289 6.154664 26.703469 7.25 26.962891 C 13.075758 28.345482 18.926195 28.345482 24.751953 26.962891 A 1.0001 1.0001 0 0 0 24.753906 26.960938 C 25.847488 26.700055 26.700242 25.846264 26.960938 24.751953 A 1.0001 1.0001 0 0 0 26.962891 24.75 C 28.345481 18.925272 28.344434 13.078543 26.962891 7.2539062 C 26.702356 6.1562115 25.843883 5.2975503 24.746094 5.0371094 C 21.834741 4.3463233 18.917505 4 16 4 z M 16 5.9980469 C 18.759495 5.9980469 21.519509 6.3262079 24.285156 6.9824219 C 24.637367 7.0659809 24.934019 7.3626325 25.017578 7.7148438 C 26.330034 13.248207 26.329081 18.755792 25.015625 24.289062 C 24.932315 24.638752 24.637481 24.932507 24.289062 25.015625 C 18.75547 26.328576 13.244537 26.328881 7.7109375 25.015625 C 7.3623205 24.933047 7.0669533 24.63968 6.984375 24.291016 A 1.0001 1.0001 0 0 0 6.984375 24.289062 C 5.6700192 18.755954 5.6699716 13.248181 6.9824219 7.7148438 C 7.0659809 7.3626326 7.3613606 7.0661672 7.7148438 6.9824219 A 1.0001 1.0001 0 0 0 7.7167969 6.9824219 C 10.482447 6.3262079 13.240505 5.9980469 16 5.9980469 z M 10.5 10 A 1.5 1.5 0 0 0 10.5 13 A 1.5 1.5 0 0 0 10.5 10 z M 10.5 14 C 10.174 14 9.8474844 14.084859 9.5214844 14.255859 C 9.3804844 14.329859 9.2866719 14.474813 9.2636719 14.632812 C 8.9126719 17.070813 8.9126719 19.929188 9.2636719 22.367188 C 9.2866719 22.525187 9.3804844 22.670141 9.5214844 22.744141 C 10.173484 23.086141 10.826516 23.086141 11.478516 22.744141 C 11.619516 22.670141 11.713328 22.525188 11.736328 22.367188 C 12.087328 19.929187 12.087328 17.070813 11.736328 14.632812 C 11.713328 14.474812 11.619516 14.329859 11.478516 14.255859 C 11.152516 14.084859 10.826 14 10.5 14 z M 15.232422 14.019531 C 15.013797 14.046469 14.781172 14.104031 14.544922 14.207031 C 14.389922 14.274031 14.285719 14.424797 14.261719 14.591797 C 13.912719 17.025797 13.913672 19.935187 14.263672 22.367188 C 14.286672 22.525188 14.380484 22.670141 14.521484 22.744141 C 15.148484 23.072141 16.026344 23.08425 16.652344 22.78125 C 16.837344 22.69225 16.928344 22.472531 16.902344 22.269531 C 16.407344 18.415531 16.880781 17.266625 18.175781 16.890625 C 19.301781 16.562625 20.982234 17.259812 20.115234 22.257812 C 20.079234 22.468812 20.168328 22.697062 20.361328 22.789062 C 20.987328 23.086063 21.862281 23.069281 22.488281 22.738281 C 22.622281 22.667281 22.720141 22.523047 22.744141 22.373047 C 24.321141 12.587047 17.934531 13.272547 16.644531 15.185547 C 16.661531 14.912547 16.639391 14.391672 16.525391 14.263672 C 16.415141 14.139172 15.888297 13.938719 15.232422 14.019531 z"/></svg>